<svg width="260" height="170" viewBox="0 0 260 170" fill="none" xmlns="http://www.w3.org/2000/svg">
<path d="M0 3.00001C0 1.34315 1.34315 0 3 0H257C258.657 0 260 1.34315 260 3V170H0V3.00001Z" fill="#6C6C80"/>
<path d="M63.298 97.384C60.5247 97.384 58.4233 96.616 56.994 95.08C55.5647 93.544 54.85 91.4533 54.85 88.808C54.85 87.464 55.0313 86.2587 55.394 85.192C55.778 84.104 56.3113 83.1867 56.994 82.44C57.698 81.672 58.5407 81.096 59.522 80.712C60.5247 80.3067 61.6447 80.104 62.882 80.104C64.1193 80.104 65.2287 80.3067 66.21 80.712C67.1913 81.096 68.0233 81.6507 68.706 82.376C69.3887 83.1013 69.9113 83.9867 70.274 85.032C70.658 86.056 70.85 87.208 70.85 88.488V89.896H59.554V90.184C59.554 91.2507 59.8847 92.1147 60.546 92.776C61.2073 93.416 62.178 93.736 63.458 93.736C64.4393 93.736 65.282 93.5547 65.986 93.192C66.69 92.808 67.298 92.3067 67.81 91.688L70.37 94.472C69.73 95.2613 68.834 95.944 67.682 96.52C66.53 97.096 65.0687 97.384 63.298 97.384ZM62.914 83.496C61.89 83.496 61.0687 83.816 60.45 84.456C59.8527 85.0747 59.554 85.9173 59.554 86.984V87.24H66.21V86.984C66.21 85.896 65.9113 85.0427 65.314 84.424C64.738 83.8053 63.938 83.496 62.914 83.496ZM73.3975 97V80.488H77.2055V82.92H77.4295C77.6855 82.152 78.0482 81.4907 78.5175 80.936C79.0082 80.3813 79.6908 80.104 80.5655 80.104C82.1655 80.104 83.1468 81.0427 83.5095 82.92H83.7015C83.8295 82.536 83.9895 82.1733 84.1815 81.832C84.3735 81.4907 84.6082 81.192 84.8855 80.936C85.1628 80.68 85.4935 80.4773 85.8775 80.328C86.2615 80.1787 86.7095 80.104 87.2215 80.104C89.5255 80.104 90.6775 81.8 90.6775 85.192V97H86.8695V85.672C86.8695 84.904 86.7308 84.3707 86.4535 84.072C86.1975 83.752 85.8562 83.592 85.4295 83.592C85.0242 83.592 84.6722 83.7307 84.3735 84.008C84.0962 84.264 83.9575 84.6693 83.9575 85.224V97H80.1175V85.672C80.1175 84.904 79.9895 84.3707 79.7335 84.072C79.4988 83.752 79.1682 83.592 78.7415 83.592C78.3148 83.592 77.9522 83.7307 77.6535 84.008C77.3548 84.264 77.2055 84.6693 77.2055 85.224V97H73.3975ZM112.701 73.32H117.437V83.496H117.661C118.066 82.5147 118.653 81.704 119.421 81.064C120.189 80.424 121.234 80.104 122.557 80.104C123.474 80.104 124.306 80.2747 125.053 80.616C125.821 80.9573 126.471 81.48 127.005 82.184C127.559 82.888 127.986 83.784 128.285 84.872C128.605 85.96 128.765 87.2507 128.765 88.744C128.765 90.2373 128.605 91.528 128.285 92.616C127.986 93.704 127.559 94.6 127.005 95.304C126.471 96.008 125.821 96.5307 125.053 96.872C124.306 97.2133 123.474 97.384 122.557 97.384C121.234 97.384 120.189 97.0747 119.421 96.456C118.653 95.816 118.066 94.9947 117.661 93.992H117.437V97H112.701V73.32ZM120.509 93.704C121.575 93.704 122.397 93.384 122.973 92.744C123.549 92.0827 123.837 91.176 123.837 90.024V87.464C123.837 86.312 123.549 85.416 122.973 84.776C122.397 84.1147 121.575 83.784 120.509 83.784C119.677 83.784 118.951 83.9867 118.333 84.392C117.735 84.7973 117.437 85.4373 117.437 86.312V91.176C117.437 92.0507 117.735 92.6907 118.333 93.096C118.951 93.5013 119.677 93.704 120.509 93.704ZM132.368 93.32H136.176V84.168H132.368V80.488H140.912V85.16H141.136C141.285 84.5627 141.488 83.9867 141.744 83.432C142.021 82.856 142.363 82.3547 142.768 81.928C143.195 81.48 143.707 81.128 144.304 80.872C144.901 80.616 145.605 80.488 146.416 80.488H147.984V84.84H144.464C143.291 84.84 142.405 85.192 141.808 85.896C141.211 86.5787 140.912 87.4213 140.912 88.424V93.32H146.352V97H132.368V93.32ZM159.236 97.384C156.462 97.384 154.361 96.616 152.932 95.08C151.502 93.544 150.788 91.4533 150.788 88.808C150.788 87.464 150.969 86.2587 151.332 85.192C151.716 84.104 152.249 83.1867 152.932 82.44C153.636 81.672 154.478 81.096 155.46 80.712C156.462 80.3067 157.582 80.104 158.82 80.104C160.057 80.104 161.166 80.3067 162.148 80.712C163.129 81.096 163.961 81.6507 164.644 82.376C165.326 83.1013 165.849 83.9867 166.212 85.032C166.596 86.056 166.788 87.208 166.788 88.488V89.896H155.492V90.184C155.492 91.2507 155.822 92.1147 156.484 92.776C157.145 93.416 158.116 93.736 159.396 93.736C160.377 93.736 161.22 93.5547 161.924 93.192C162.628 92.808 163.236 92.3067 163.748 91.688L166.308 94.472C165.668 95.2613 164.772 95.944 163.62 96.52C162.468 97.096 161.006 97.384 159.236 97.384ZM158.852 83.496C157.828 83.496 157.006 83.816 156.388 84.456C155.79 85.0747 155.492 85.9173 155.492 86.984V87.24H162.148V86.984C162.148 85.896 161.849 85.0427 161.252 84.424C160.676 83.8053 159.876 83.496 158.852 83.496ZM175.159 97L169.239 80.488H174.231L176.375 87.56L177.943 93.064H178.199L179.767 87.56L181.911 80.488H186.711L180.791 97H175.159ZM197.611 97.384C194.837 97.384 192.736 96.616 191.307 95.08C189.877 93.544 189.163 91.4533 189.163 88.808C189.163 87.464 189.344 86.2587 189.707 85.192C190.091 84.104 190.624 83.1867 191.307 82.44C192.011 81.672 192.853 81.096 193.835 80.712C194.837 80.3067 195.957 80.104 197.195 80.104C198.432 80.104 199.541 80.3067 200.523 80.712C201.504 81.096 202.336 81.6507 203.019 82.376C203.701 83.1013 204.224 83.9867 204.587 85.032C204.971 86.056 205.163 87.208 205.163 88.488V89.896H193.867V90.184C193.867 91.2507 194.197 92.1147 194.859 92.776C195.52 93.416 196.491 93.736 197.771 93.736C198.752 93.736 199.595 93.5547 200.299 93.192C201.003 92.808 201.611 92.3067 202.123 91.688L204.683 94.472C204.043 95.2613 203.147 95.944 201.995 96.52C200.843 97.096 199.381 97.384 197.611 97.384ZM197.227 83.496C196.203 83.496 195.381 83.816 194.763 84.456C194.165 85.0747 193.867 85.9173 193.867 86.984V87.24H200.523V86.984C200.523 85.896 200.224 85.0427 199.627 84.424C199.051 83.8053 198.251 83.496 197.227 83.496Z" fill="white"/>
</svg>
